HIERARCHY
ROOT hip
{
  OFFSET 0 0 0
  CHANNELS 6 Xposition Yposition Zposition Zrotation Yrotation Xrotation
  JOINT abdomen
  {
    OFFSET 0 20.6881 -0.73152
    CHANNELS 3 Zrotation Xrotation Yrotation
    JOINT chest
    {
      OFFSET 0 11.7043 -0.48768
      CHANNELS 3 Zrotation Xrotation Yrotation
      JOINT neck
      {
        OFFSET 0 22.1894 -2.19456
        CHANNELS 3 Zrotation Xrotation Yrotation
        JOINT head
        {
          OFFSET -0.24384 7.07133 1.2192
          CHANNELS 3 Zrotation Xrotation Yrotation
          JOINT leftEye
          {
            OFFSET 4.14528 8.04674 8.04672
            CHANNELS 3 Zrotation Xrotation Yrotation
            End Site
            {
              OFFSET 1 0 0
            }
          }
          JOINT rightEye
          {
            OFFSET -3.6576 8.04674 8.04672
            CHANNELS 3 Zrotation Xrotation Yrotation
            End Site
            {
              OFFSET 1 0 0
            }
          }
        }
      }
      JOINT rCollar
      {
        OFFSET -2.68224 19.2634 -4.8768
        CHANNELS 3 Zrotation Xrotation Yrotation
        JOINT rShldr
        {
          OFFSET -8.77824 -1.95073 1.46304
          CHANNELS 3 Zrotation Xrotation Yrotation
          JOINT rForeArm
          {
            OFFSET -28.1742 -1.7115 0.48768
            CHANNELS 3 Zrotation Xrotation Yrotation
            JOINT rHand
            {
              OFFSET -22.5879 0.773209 7.07136
              CHANNELS 3 Zrotation Xrotation Yrotation
              JOINT rThumb1
              {
                OFFSET -1.2192 -0.487915 3.41376
                CHANNELS 3 Zrotation Xrotation Yrotation
                JOINT rThumb2
                {
                  OFFSET -3.37035 -0.52449 3.41376
                  CHANNELS 3 Zrotation Xrotation Yrotation
                  End Site
                  {
                    OFFSET -1.78271 -1.18214 1.43049
                  }
                }
              }
              JOINT rIndex1
              {
                OFFSET -7.75947 0.938293 5.60832
                CHANNELS 3 Zrotation Xrotation Yrotation
                JOINT rIndex2
                {
                  OFFSET -2.54057 -0.884171 1.56538
                  CHANNELS 3 Zrotation Xrotation Yrotation
                  End Site
                  {
                    OFFSET -1.62519 -0.234802 1.16502
                  }
                }
              }
              JOINT rMid1
              {
                OFFSET -8.24714 1.18213 3.41376
                CHANNELS 3 Zrotation Xrotation Yrotation
                JOINT rMid2
                {
                  OFFSET -3.10165 -0.590103 1.0647
                  CHANNELS 3 Zrotation Xrotation Yrotation
                  End Site
                  {
                    OFFSET -2.48547 -0.328903 0.83742
                  }
                }
              }
              JOINT rRing1
              {
                OFFSET -8.82822 0.546677 1.51678
                CHANNELS 3 Zrotation Xrotation Yrotation
                JOINT rRing2
                {
                  OFFSET -2.60934 -0.819778 -0.0198488
                  CHANNELS 3 Zrotation Xrotation Yrotation
                  End Site
                  {
                    OFFSET -2.33842 -0.294052 0.168128
                  }
                }
              }
              JOINT rPinky1
              {
                OFFSET -8.27202 -0.0477905 -0.4584
                CHANNELS 3 Zrotation Xrotation Yrotation
                JOINT rPinky2
                {
                  OFFSET -1.82734 -0.647385 -0.700984
                  CHANNELS 3 Zrotation Xrotation Yrotation
                  End Site
                  {
                    OFFSET -1.69225 -0.51767 -0.607171
                  }
                }
              }
            }
          }
        }
      }
      JOINT lCollar
      {
        OFFSET 2.68224 19.2634 -4.8768
        CHANNELS 3 Zrotation Xrotation Yrotation
        JOINT lShldr
        {
          OFFSET 8.77824 -1.95073 1.46304
          CHANNELS 3 Zrotation Xrotation Yrotation
          JOINT lForeArm
          {
            OFFSET 28.1742 -1.7115 0.48768
            CHANNELS 3 Zrotation Xrotation Yrotation
            JOINT lHand
            {
              OFFSET 22.5879 0.773209 7.07136
              CHANNELS 3 Zrotation Xrotation Yrotation
              JOINT lThumb1
              {
                OFFSET 1.2192 -0.487915 3.41376
                CHANNELS 3 Zrotation Xrotation Yrotation
                JOINT lThumb2
                {
                  OFFSET 3.37035 -0.52449 3.41376
                  CHANNELS 3 Zrotation Xrotation Yrotation
                  End Site
                  {
                    OFFSET 1.78271 -1.18214 1.43049
                  }
                }
              }
              JOINT lIndex1
              {
                OFFSET 7.75947 0.938293 5.60832
                CHANNELS 3 Zrotation Xrotation Yrotation
                JOINT lIndex2
                {
                  OFFSET 2.54057 -0.884171 1.56538
                  CHANNELS 3 Zrotation Xrotation Yrotation
                  End Site
                  {
                    OFFSET 1.62519 -0.234802 1.16502
                  }
                }
              }
              JOINT lMid1
              {
                OFFSET 8.24714 1.18213 3.41376
                CHANNELS 3 Zrotation Xrotation Yrotation
                JOINT lMid2
                {
                  OFFSET 3.10165 -0.590103 1.0647
                  CHANNELS 3 Zrotation Xrotation Yrotation
                  End Site
                  {
                    OFFSET 2.48547 -0.328903 0.83742
                  }
                }
              }
              JOINT lRing1
              {
                OFFSET 8.82822 0.546677 1.51678
                CHANNELS 3 Zrotation Xrotation Yrotation
                JOINT lRing2
                {
                  OFFSET 2.60934 -0.819778 -0.0198488
                  CHANNELS 3 Zrotation Xrotation Yrotation
                  End Site
                  {
                    OFFSET 2.33842 -0.294052 0.168128
                  }
                }
              }
              JOINT lPinky1
              {
                OFFSET 8.27202 -0.0477905 -0.4584
                CHANNELS 3 Zrotation Xrotation Yrotation
                JOINT lPinky2
                {
                  OFFSET 1.82734 -0.647385 -0.700984
                  CHANNELS 3 Zrotation Xrotation Yrotation
                  End Site
                  {
                    OFFSET 1.69225 -0.51767 -0.607171
                  }
                }
              }
            }
          }
        }
      }
    }
  }
  JOINT rButtock
  {
    OFFSET -8.77824 4.35084 1.2192
    CHANNELS 3 Zrotation Xrotation Yrotation
    JOINT rThigh
    {
      OFFSET 0 -1.70687 -2.19456
      CHANNELS 3 Zrotation Xrotation Yrotation
      JOINT rShin
      {
        OFFSET 0 -36.8199 0.73152
        CHANNELS 3 Zrotation Xrotation Yrotation
        JOINT rFoot
        {
          OFFSET 0.73152 -45.1104 -5.12064
          CHANNELS 3 Zrotation Xrotation Yrotation
          End Site
          {
            OFFSET -1.1221 -3.69964 12.103
          }
        }
      }
    }
  }
  JOINT lButtock
  {
    OFFSET 8.77824 4.35084 1.2192
    CHANNELS 3 Zrotation Xrotation Yrotation
    JOINT lThigh
    {
      OFFSET 0 -1.70687 -2.19456
      CHANNELS 3 Zrotation Xrotation Yrotation
      JOINT lShin
      {
        OFFSET 0 -36.8199 0.73152
        CHANNELS 3 Zrotation Xrotation Yrotation
        JOINT lFoot
        {
          OFFSET -0.73152 -45.1104 -5.12064
          CHANNELS 3 Zrotation Xrotation Yrotation
          End Site
          {
            OFFSET 1.1221 -3.69964 12.103
          }
        }
      }
    }
  }
}
MOTION
Frames:	8
Frame Time:	0.00833333
42.7853 85.1987 -101.068 0.0 0.0 0.0 0.589732 -0.00310819 0.0168534 0.162771 -0.00479473 0.0282028 -1.78897e-14 0.0 -7.45443e-17 -5.36315e-14 3.18055e-15 -2.51587e-16 -0.0 0.0 0.0 -0.0 0.0 0.0 -8.89716e-15 1.28123e-17 4.96962e-17 -1.85754e-13 2.67117e-16 -9.93923e-16 -3.23105e-12 9.78617e-13 2.22639e-14 -3.70038e-11 -9.1349e-13 -2.57625e-13 -8.72903e-11 1.41825e-13 -4.96167e-13 -1.50756e-10 2.48083e-13 -8.63521e-13 -8.72859e-11 1.42727e-13 -5.05708e-13 7.73091 5.47488 0.417314 -8.72902e-11 1.41634e-13 -4.99347e-13 2.90554 0.965183 0.102902 -8.72801e-11 1.42429e-13 -4.98552e-13 10.2786 0.731801 0.0259123 -8.72909e-11 1.44318e-13 -4.92986e-13 2.22167 -0.733487 -0.20892 -8.89465e-15 1.2424e-17 -1.49089e-16 -1.89662e-13 3.54085e-16 -2.5842e-15 -3.23383e-12 -9.55955e-13 9.54166e-15 -3.70097e-11 1.03303e-12 -2.35361e-13 -8.73026e-11 1.6574e-13 -4.96167e-13 -1.50757e-10 2.8943e-13 -8.59545e-13 -8.73062e-11 1.65389e-13 -4.86625e-13 -7.73091 5.47488 -0.417314 -8.73013e-11 1.65786e-13 -4.96167e-13 -2.90554 0.965183 -0.102902 -8.7312e-11 1.65985e-13 -5.00142e-13 -10.2786 0.731801 -0.0259123 -8.73034e-11 1.66184e-13 -5.12069e-13 -2.22167 -0.733487 0.20892 -2.03217e-16 0.0 -3.88251e-19 0.942571 -4.57989 -0.0791181 -0.00186682 2.74409 -0.00695523 -0.499319 1.83607 0.0942928 2.03217e-16 0.0 3.88251e-19 -0.044637 -2.31105 0.0215227 0.00817105 -1.36559 0.0698355 0.491019 3.6768 -0.130675
44.1563 83.6754 -101.972 5.4722 1.1639 4.0077 -1.2431 -3.45897 -0.461171 1.17249 -1.58208 0.00327369 -1.63208 -0.629343 -1.12397 3.44839 -11.8942 -0.413825 -0.0 0.0 0.0 -0.0 0.0 0.0 -5.37722e-14 3.24004e-14 1.30072e-14 -10.2846 -17.4626 4.59228 -22.9375 -20.81 14.8962 0.0129243 2.52274 0.353308 6.37236e-11 -3.36773e-11 -8.26416e-11 1.09259e-10 -5.82729e-11 -1.43429e-10 6.37347e-11 -3.36724e-11 -8.26626e-11 7.73091 5.47488 0.417314 6.37233e-11 -3.36789e-11 -8.2644e-11 2.90554 0.965183 0.102902 6.3731e-11 -3.36787e-11 -8.26442e-11 10.2786 0.731801 0.0259123 6.37191e-11 -3.36765e-11 -8.26385e-11 2.22167 -0.733487 -0.20892 -5.38018e-14 3.23967e-14 1.27653e-14 8.64994 -17.0017 -5.97604 26.2874 -23.968 -14.005 -0.016133 -2.81827 0.394353 1.38956e-11 -2.97559e-10 1.24285e-10 2.3595e-11 -5.14082e-10 2.15306e-10 1.38889e-11 -2.97557e-10 1.24301e-10 -7.73091 5.47488 -0.417314 1.38962e-11 -2.9756e-10 1.24284e-10 -2.90554 0.965183 -0.102902 1.3887e-11 -2.9756e-10 1.24282e-10 -10.2786 0.731801 -0.0259123 1.38959e-11 -2.9756e-10 1.24273e-10 -2.22167 -0.733487 0.20892 -2.03217e-16 0.0 -3.88251e-19 -0.57248 -5.58904 6.12 0.0885802 9.62553 0.275361 -3.09281 -6.25525 -11.8376 2.03217e-16 0.0 3.88251e-19 -0.106943 -4.43072 -1.03516 -0.0216055 5.69458 -0.0874561 1.31996 -0.402394 7.42544
44.1655 83.6794 -101.968 5.5078 1.1801 3.9888 -3.24493 -7.11108 -0.974663 2.24046 -3.24917 -0.0238096 -3.40476 -1.30017 -2.31742 6.91987 -24.4534 -0.907774 -0.0 0.0 0.0 -0.0 0.0 0.0 -1.03165e-13 6.80929e-14 2.78858e-14 -17.4986 -35.52 11.1007 -33.353 -37.7094 37.2395 -0.0073901 5.19544 0.729949 2.23488e-10 -7.85e-11 -1.6962e-10 3.84326e-10 -1.35859e-10 -2.94342e-10 2.23506e-10 -7.84907e-11 -1.69653e-10 7.73091 5.47488 0.417314 2.23487e-10 -7.85031e-11 -1.69621e-10 2.90554 0.965183 0.102902 2.23492e-10 -7.85035e-11 -1.69623e-10 10.2786 0.731801 0.0259123 2.23479e-10 -7.85011e-11 -1.69617e-10 2.22167 -0.733487 -0.20892 -1.03229e-13 6.80853e-14 2.75969e-14 13.2313 -34.3091 -14.277 37.6197 -43.8898 -37.907 0.00918115 -5.7932 0.813872 1.20757e-10 -6.23533e-10 2.59422e-10 2.07702e-10 -1.0773e-09 4.49365e-10 1.20747e-10 -6.23529e-10 2.59445e-10 -7.73091 5.47488 -0.417314 1.20757e-10 -6.23537e-10 2.5942e-10 -2.90554 0.965183 -0.102902 1.20749e-10 -6.23537e-10 2.5942e-10 -10.2786 0.731801 -0.0259123 1.20759e-10 -6.23536e-10 2.59414e-10 -2.22167 -0.733487 0.20892 -2.03217e-16 0.0 -3.88251e-19 -1.93973 -6.55973 12.6945 0.107461 16.9005 0.591447 -9.47734 -13.7229 -25.0653 2.03217e-16 0.0 3.88251e-19 -0.260386 -6.66964 -2.16155 -0.0100299 13.1575 -0.259539 3.35402 -4.54765 15.4642
44.1625 83.6807 -101.969 5.5222 1.1072 3.9968 -5.08416 -10.3678 -1.43819 3.1878 -4.73665 -0.0467478 -4.97032 -1.88512 -3.37353 9.72876 -35.6742 -1.4955 -0.0 0.0 0.0 -0.0 0.0 0.0 -1.43522e-13 9.71756e-14 3.89222e-14 -18.4667 -50.6292 21.0016 -30.7569 -42.3181 64.1433 -0.0552566 7.56706 1.0682 3.65751e-10 -1.01316e-10 -2.46932e-10 6.29288e-10 -1.75315e-10 -4.28558e-10 3.65776e-10 -1.01303e-10 -2.46976e-10 7.73091 5.47488 0.417314 3.6575e-10 -1.0132e-10 -2.46933e-10 2.90554 0.965183 0.102902 3.65753e-10 -1.01321e-10 -2.46936e-10 10.2786 0.731801 0.0259123 3.65739e-10 -1.01318e-10 -2.46929e-10 2.22167 -0.733487 -0.20892 -1.43616e-13 9.71653e-14 3.85941e-14 11.0326 -48.1956 -26.2418 31.2503 -48.8957 -70.6143 0.0690653 -8.4532 1.19461 2.16292e-10 -8.93007e-10 3.73848e-10 3.723e-10 -1.54282e-09 6.47637e-10 2.16279e-10 -8.93001e-10 3.73878e-10 -7.73091 5.47488 -0.417314 2.16291e-10 -8.93013e-10 3.73845e-10 -2.90554 0.965183 -0.102902 2.16285e-10 -8.93013e-10 3.73848e-10 -10.2786 0.731801 -0.0259123 2.16295e-10 -8.93011e-10 3.73843e-10 -2.22167 -0.733487 0.20892 -2.03217e-16 0.0 -3.88251e-19 -2.96159 -7.30552 18.5865 0.0500218 23.3861 0.902491 -18.1021 -18.4265 -37.7262 2.03217e-16 0.0 3.88251e-19 -0.468442 -8.65911 -3.17543 0.0405156 19.8144 -0.425922 6.14337 -7.91212 22.7653
44.1585 83.6801 -101.971 5.5351 1.0297 4.01 -6.39084 -12.639 -1.75656 3.83665 -5.77509 -0.0591378 -5.96412 -2.25826 -4.08468 11.3181 -43.5558 -2.09902 -0.0 0.0 0.0 -0.0 0.0 0.0 -1.61287e-13 1.09734e-13 4.03533e-14 -13.1281 -59.8108 33.2146 -28.3113 -38.2287 80.8025 -0.10465 9.18712 1.30246 4.64262e-10 -6.91135e-11 -3.00082e-10 7.98987e-10 -1.19443e-10 -5.21035e-10 4.64292e-10 -6.90987e-11 -3.00133e-10 7.73091 5.47488 0.417314 4.64261e-10 -6.91184e-11 -3.00082e-10 2.90554 0.965183 0.102902 4.64263e-10 -6.91194e-11 -3.00085e-10 10.2786 0.731801 0.0259123 4.64249e-10 -6.91166e-11 -3.00079e-10 2.22167 -0.733487 -0.20892 -1.614e-13 1.09724e-13 4.00054e-14 3.63598 -55.977 -39.6164 27.2626 -43.2698 -90.0105 0.132623 -10.3274 1.4675 2.83511e-10 -1.02123e-09 4.36499e-10 4.88125e-10 -1.76414e-09 7.5644e-10 2.83497e-10 -1.02122e-09 4.36531e-10 -7.73091 5.47488 -0.417314 2.83511e-10 -1.02124e-09 4.36496e-10 -2.90554 0.965183 -0.102902 2.83505e-10 -1.02124e-09 4.36499e-10 -10.2786 0.731801 -0.0259123 2.83514e-10 -1.02123e-09 4.36496e-10 -2.22167 -0.733487 0.20892 -2.03217e-16 0.0 -3.88251e-19 -3.56299 -7.73715 22.7205 -0.0379726 27.9008 1.14383 -25.4273 -20.1468 -46.9184 2.03217e-16 0.0 3.88251e-19 -0.644484 -10.0349 -3.88458 0.100966 24.4568 -0.554099 8.61155 -9.99034 27.9519
44.1483 83.6794 -101.969 5.4984 1.0082 3.9993 -6.89289 -13.5335 -1.85361 4.06742 -6.18634 -0.0554488 -6.08997 -2.33283 -4.30483 11.4146 -46.7611 -2.53961 -0.0 0.0 0.0 -0.0 0.0 0.0 -1.42947e-13 9.73322e-14 2.37583e-14 -8.87607 -62.8397 39.9534 -28.2351 -35.3673 85.7775 -0.125428 9.73778 1.38289 5.09475e-10 5.97636e-11 -3.19564e-10 8.77088e-10 1.03955e-10 -5.55454e-10 5.09507e-10 5.9777e-11 -3.19617e-10 7.73091 5.47488 0.417314 5.09474e-10 5.97588e-11 -3.19562e-10 2.90554 0.965183 0.102902 5.09477e-10 5.97583e-11 -3.19566e-10 10.2786 0.731801 0.0259123 5.09463e-10 5.97611e-11 -3.1956e-10 2.22167 -0.733487 -0.20892 -1.43063e-13 9.73254e-14 2.34248e-14 -1.00255 -58.3145 -46.4842 27.2778 -39.6781 -95.2607 0.163729 -11.1035 1.58184 3.17083e-10 -9.48859e-10 4.18592e-10 5.46063e-10 -1.6386e-09 7.26094e-10 3.17068e-10 -9.48852e-10 4.1862e-10 -7.73091 5.47488 -0.417314 3.17083e-10 -9.48863e-10 4.1859e-10 -2.90554 0.965183 -0.102902 3.17078e-10 -9.48863e-10 4.18593e-10 -10.2786 0.731801 -0.0259123 3.17085e-10 -9.4886e-10 4.18588e-10 -2.22167 -0.733487 0.20892 -2.03217e-16 0.0 -3.88251e-19 -3.74979 -7.86775 24.3819 -0.0853207 29.656 1.24442 -28.5056 -20.4021 -50.554 2.03217e-16 0.0 3.88251e-19 -0.697202 -10.5569 -4.15598 0.130814 26.2804 -0.609239 9.70525 -10.7675 29.9912
44.1296 83.6819 -101.959 5.4275 0.9762 3.9541 -6.80726 -13.4451 -1.78864 3.99984 -6.14953 -0.0403006 -5.59372 -2.1948 -4.17439 10.5749 -46.6294 -2.75844 -0.0 0.0 0.0 -0.0 0.0 0.0 -9.90302e-14 6.71882e-14 -5.49453e-15 -9.5389 -62.5628 38.9108 -28.2136 -35.7249 85.2996 -0.119162 9.52565 1.35207 5.16238e-10 2.56759e-10 -3.14988e-10 8.89107e-10 4.45393e-10 -5.48385e-10 5.16271e-10 2.56768e-10 -3.15041e-10 7.73091 5.47488 0.417314 5.16238e-10 2.56754e-10 -3.14986e-10 2.90554 0.965183 0.102902 5.16244e-10 2.56755e-10 -3.14991e-10 10.2786 0.731801 0.0259123 5.1623e-10 2.56757e-10 -3.14984e-10 2.22167 -0.733487 -0.20892 -9.91367e-14 6.71882e-14 -5.7896e-15 -0.428775 -58.1199 -45.8116 27.2401 -40.082 -94.6953 0.162434 -11.0956 1.58055 3.26334e-10 -7.33342e-10 3.43527e-10 5.62158e-10 -1.26554e-09 5.97017e-10 3.2632e-10 -7.33337e-10 3.43547e-10 -7.73091 5.47488 -0.417314 3.26335e-10 -7.33343e-10 3.43528e-10 -2.90554 0.965183 -0.102902 3.26331e-10 -7.33342e-10 3.43528e-10 -10.2786 0.731801 -0.0259123 3.26335e-10 -7.33339e-10 3.43522e-10 -2.22167 -0.733487 0.20892 -2.03217e-16 0.0 -3.88251e-19 -3.67855 -7.82139 24.2722 -0.0813975 29.4406 1.23092 -28.1659 -20.3583 -50.189 2.03217e-16 0.0 3.88251e-19 -0.644494 -10.4708 -4.11047 0.127018 26.0905 -0.605728 9.61289 -10.7618 29.7346
44.1206 83.6845 -101.952 5.407 0.9257 3.9255 -6.48991 -12.9617 -1.66503 3.81529 -5.93117 -0.0224608 -4.92066 -1.97795 -3.91491 9.53428 -45.1773 -2.80769 -0.0 0.0 0.0 -0.0 0.0 0.0 -5.20468e-14 3.287e-14 -3.24846e-14 -12.1231 -60.9359 34.7993 -28.2174 -37.3776 82.642 -0.103511 9.03717 1.28108 4.94894e-10 4.49561e-10 -3.00535e-10 8.52658e-10 7.79538e-10 -5.24116e-10 4.94927e-10 4.49566e-10 -3.00584e-10 7.73091 5.47488 0.417314 4.94895e-10 4.49557e-10 -3.00532e-10 2.90554 0.965183 0.102902 4.94904e-10 4.49559e-10 -3.00537e-10 10.2786 0.731801 0.0259123 4.9489e-10 4.49561e-10 -3.0053e-10 2.22167 -0.733487 -0.20892 -5.21412e-14 3.2877e-14 -3.27428e-14 2.24393 -56.9256 -42.0929 27.1863 -42.0804 -91.7983 0.14778 -10.7725 1.53268 3.16268e-10 -4.65113e-10 2.58516e-10 5.44884e-10 -8.01405e-10 4.50677e-10 3.16255e-10 -4.6511e-10 2.58528e-10 -7.73091 5.47488 -0.417314 3.1627e-10 -4.65111e-10 2.58518e-10 -2.90554 0.965183 -0.102902 3.16266e-10 -4.65109e-10 2.58518e-10 -10.2786 0.731801 -0.0259123 3.16267e-10 -4.65106e-10 2.58508e-10 -2.22167 -0.733487 0.20892 -2.03217e-16 0.0 -3.88251e-19 -3.51196 -7.70978 23.4378 -0.0569961 28.4398 1.17209 -26.4497 -20.1953 -48.211 2.03217e-16 0.0 3.88251e-19 -0.554406 -10.1435 -3.93256 0.109734 25.0937 -0.578288 9.04113 -10.4371 28.5624
